# xmcd
#
# Track frame offsets: 
#        150
#        16064
#        32044
#        50917
#        71300
#
# Disc length: 1227 seconds
#
# Revision: 0
# Processed by: cddbd v1.5.2PL0 Copyright (c) Steve Scherf et al.
# Submitted via: ExactAudioCopy v0.99pb3
#
DISCID=3904c905
DTITLE=Robin English - Robin English [Sampler]
DYEAR=2001
DGENRE=Country
TTITLE0=Girl In Love
TTITLE1=Till Nothing Comes Between Us
TTITLE2=Enjoy The Ride
TTITLE3=Beautiful Today
TTITLE4=Meet You On The Moon
EXTD=
EXTT0=
EXTT1=
EXTT2=
EXTT3=
EXTT4=
PLAYORDER=
